<?xml version="1.0" encoding="iso-8859-1"?>
<!DOCTYPE svg PUBLIC "-//W3C//DTD SVG 1.1//EN" "http://www.w3.org/Graphics/SVG/1.1/DTD/svg11.dtd">
<svg version="1.1" id="Layer_1" xmlns="http://www.w3.org/2000/svg" xmlns:xlink="http://www.w3.org/1999/xlink" x="0px" y="0px"
	 viewBox="-1.584 -2.124 800 200" style="enable-background:new -1.584 -2.124 800 200;" xml:space="preserve">
<g id="Layer_27">
	<g>
		<path style="fill:#FFFFFF;" d="M254.574,144.295V45.206h36.38c20.242,0,32.841,12.457,32.841,32.274v34.54
			c0,19.676-12.599,32.274-32.841,32.274h-36.38V144.295z M273.542,127.45h17.412c8.918,0,13.73-5.804,13.73-17.129V79.179
			c0-11.325-4.812-17.129-13.73-17.129h-17.412L273.542,127.45L273.542,127.45z"/>
		<path style="fill:#FFFFFF;" d="M409.179,99.139c0-18.544,11.75-29.868,30.859-29.868c18.969,0,30.718,11.324,30.718,29.868v16.703
			c0.142,18.544-11.749,29.869-30.718,29.869c-19.109,0-30.859-11.325-30.859-29.869V99.139z M427.298,114.285
			c0,10.334,4.53,15.713,12.74,15.713c8.069,0,12.599-5.379,12.599-15.713v-13.59c0-10.333-4.529-15.712-12.599-15.712
			c-8.21,0-12.599,5.379-12.599,15.712L427.298,114.285z"/>
		<path style="fill:#FFFFFF;" d="M514.398,146.276c-17.978,0-31.143-11.891-31.143-30.576V73.8
			c0-18.685,13.165-30.576,31.143-30.576c13.023,0,19.534,4.105,26.329,9.484l-4.812,6.37c-5.945-4.388-10.9-7.502-21.517-7.502
			c-13.165,0-22.366,8.776-22.366,24.206v37.937c0,15.43,9.201,24.206,22.366,24.206c10.616,0,15.571-3.114,21.517-7.502
			l4.812,6.369C533.932,142.172,527.421,146.276,514.398,146.276z"/>
		<path style="fill:#FFFFFF;" d="M554.967,144.295V38.128h8.211v106.167H554.967z"/>
		<path style="fill:#FFFFFF;" d="M580.49,98.006c0-17.978,10.758-28.735,27.886-28.735c17.129,0,27.745,10.758,27.745,28.735v18.969
			c-0.142,17.978-10.616,28.736-27.745,28.736c-17.128,0-27.886-10.759-27.886-28.736V98.006z M588.7,115.276
			c0,14.863,7.078,22.507,19.676,22.507c12.599,0,19.394-7.644,19.535-22.507V99.705c0-14.863-6.937-22.508-19.535-22.508
			c-12.598,0-19.676,7.645-19.676,22.508V115.276z"/>
		<path style="fill:#FFFFFF;" d="M676.18,145.711c-16.279,0-23.073-9.909-23.073-27.745v-47.28h8.21v45.156
			c0,14.723,3.397,22.508,15.43,22.508c9.343,0,16.703-6.512,21.517-12.882V70.686h8.21v73.609h-6.795l-1.132-9.343
			C693.308,140.189,686.231,145.711,676.18,145.711z"/>
		<path style="fill:#FFFFFF;" d="M771.744,136.934c-5.096,5.097-12.599,8.777-21.375,8.777c-17.411,0-26.471-10.759-26.471-28.736
			V97.299c0-17.837,8.635-28.028,25.479-28.028c7.078,0,14.156,1.132,21.233,4.388v-35.53h8.211v106.167h-6.087L771.744,136.934z
			 M770.612,81.586c-6.936-3.397-14.155-4.53-21.092-4.53c-12.74,0-17.553,7.928-17.553,22.225v15.995
			c0,14.863,5.379,22.507,18.119,22.507c9.343,0,15.996-3.539,20.525-9.909L770.612,81.586L770.612,81.586z"/>
		<g>
			<g>
				<path style="fill:#FFFFFF;" d="M396.552,144.288h-15.575l-1.009-7.067c-4.327,4.904-12.238,8.509-20.912,8.509
					c-14.125,0-24.661-10.064-24.661-22.095c0-31.301,43.306-31.549,43.306-31.549c0-2.414-3.432-9.819-19.025-9.819
					c-3.618,0-7.402,0.676-13.467,2.478l-3.515-9.719c7.128-3.225,15.482-5.776,24.492-5.776c19.165,0,30.367,7.999,30.367,26.292
					L396.552,144.288L396.552,144.288z M362.86,131.512c6.072,0,11.833-3.513,15.232-8.424l0.075-20.076
					c-2.949,0-25.238,1.909-25.238,18.855C352.929,126.7,356.122,131.512,362.86,131.512z"/>
			</g>
		</g>
	</g>
	<g>
		<polygon style="fill:#FFFFFF;" points="103.897,47.654 144.332,27.713 103.712,9.988 63.092,27.529 		"/>
		<polygon style="fill:#FFFFFF;" points="62.353,102.307 60.322,69.441 89.864,54.67 48.136,33.991 21.179,45.808 24.687,77.381 		
			"/>
		<polygon style="fill:#FFFFFF;" points="182.737,77.196 186.614,45.808 159.288,33.991 117.929,54.67 147.84,69.441 
			145.44,102.307 		"/>
		<polygon style="fill:#FFFFFF;" points="144.332,118.001 141.378,160.837 175.721,134.988 180.89,93.444 		"/>
		<polygon style="fill:#FFFFFF;" points="63.276,118.001 26.718,93.444 31.519,135.172 66.046,160.837 		"/>
		<polygon style="fill:#FFFFFF;" points="131.408,126.679 104.081,145.143 76.386,126.679 79.155,170.623 103.897,189.086 
			128.269,170.623 		"/>
	</g>
</g>
</svg>
